<svg width="393" height="801" viewBox="0 0 393 801" fill="none" xmlns="http://www.w3.org/2000/svg">
<path d="M63.3016 451.211C68.9926 453.549 74.6268 456.085 80.3594 458.324C85.936 460.499 94.4751 464.401 100.146 464.497C100.256 464.498 100.367 464.475 100.477 464.48C100.616 464.807 100.898 464.731 101.157 464.79C107.821 466.304 114.956 469.024 121.615 468.931L152.671 472.552C155.795 475.874 156.227 476.213 152.426 479.013C128.347 496.751 90.8147 479.196 70.1733 462.712C68.0739 461.036 61.9143 455.919 60.6405 454.068C58.9267 451.584 61.4058 451.448 63.305 451.211L63.3016 451.211Z" fill="#7D9231" fill-opacity="0.4"/>
<path d="M288.302 202.212C293.993 204.549 299.627 207.085 305.359 209.325C310.936 211.5 319.475 215.401 325.146 215.497C325.256 215.499 325.367 215.476 325.477 215.481C325.616 215.807 325.898 215.731 326.157 215.791C332.821 217.305 339.956 220.025 346.615 219.931L377.671 223.552C380.795 226.874 381.227 227.214 377.426 230.014C353.347 247.752 315.815 230.197 295.173 213.712C293.074 212.036 286.914 206.919 285.64 205.069C283.927 202.584 286.406 202.449 288.305 202.211L288.302 202.212Z" fill="#7D9231" fill-opacity="0.4"/>
<path d="M290.623 545.099C296.633 543.783 302.709 542.662 308.697 541.241C314.52 539.856 323.762 538.204 328.479 535.056C328.571 534.995 328.65 534.913 328.743 534.854C329.043 535.044 329.232 534.821 329.478 534.722C335.819 532.175 343.235 530.351 348.657 526.485L376.254 511.789C380.713 512.743 381.262 512.776 379.73 517.241C370.024 545.53 329.172 552.454 302.818 550.645C300.138 550.462 292.161 549.76 290.061 548.963C287.237 547.895 289.199 546.373 290.625 545.097L290.623 545.099Z" fill="#7D9231" fill-opacity="0.4"/>
<path d="M2.64131 324.85C6.69538 323.692 10.6815 322.015 14.5877 320.413C17.5826 319.186 21.2133 317.015 24.3107 316.532C23.9245 317.125 23.7427 317.453 24.6976 317.047C32.5199 313.725 38.1858 307.873 44.4336 302.624C53.2653 295.201 61.3491 287.679 69.8696 279.858C70.2998 279.462 70.803 279.313 70.7484 278.565C72.2925 278.884 74.0794 279.063 74.2142 281.261C75.4733 301.717 55.1985 319.711 37.154 326.755C29.208 329.856 12.5317 333.831 4.6391 330.495C1.34498 329.102 1.53591 327.654 2.64152 324.856L2.64131 324.85Z" fill="#7D9231" fill-opacity="0.4"/>
<path d="M4.09643 620.739C8.19279 621.737 12.4868 622.25 16.674 622.79C19.884 623.204 24.1131 623.112 27.0444 624.223C26.4153 624.548 26.0952 624.743 27.1257 624.863C35.5679 625.842 43.386 623.558 51.4119 622.085C62.7588 619.999 73.5046 617.458 84.778 614.873C85.3475 614.742 85.8584 614.861 86.1812 614.183C87.3653 615.225 88.8299 616.264 87.8606 618.241C78.8405 636.644 52.3205 642.259 33.1532 639.46C24.7132 638.226 8.25231 633.436 3.04167 626.634C0.867321 623.794 1.74888 622.63 4.09333 620.745L4.09643 620.739Z" fill="#7D9231" fill-opacity="0.4"/>
<path d="M116.417 167.4C112.218 167.782 107.896 167.656 103.675 167.571C100.439 167.506 96.2694 166.791 93.2062 167.457C93.7804 167.872 94.0682 168.112 93.0313 168.078C84.537 167.8 77.1421 164.386 69.4217 161.743C58.5073 158.005 48.2546 153.905 37.4866 149.683C36.9428 149.469 36.4198 149.511 36.2007 148.793C34.8757 149.648 33.2738 150.46 33.9405 152.558C40.1437 172.092 65.5436 181.562 84.9142 181.624C93.4438 181.651 110.432 179.344 116.59 173.386C119.16 170.898 118.46 169.617 116.419 167.407L116.417 167.4Z" fill="#7D9231" fill-opacity="0.4"/>
<path d="M367.143 749.649C369.676 752.111 369.824 757.323 369.616 760.602C362.218 774.495 336.707 790.183 326.134 772.272L324.75 764.65C324.998 764.01 325.19 763.224 325.472 762.615C326.248 762.7 327.031 762.332 327.668 761.904C330.021 760.322 332.42 757.096 334.79 755.066C341.392 749.407 349.534 745.303 358.248 746.377C360.964 746.711 365.199 747.759 367.143 749.654L367.143 749.649ZM350.008 752.928C348.256 751.919 346.408 752.733 344.674 753.458C340.249 755.306 336.067 758.709 334.321 763.343C333.682 765.04 332.59 769.474 334.634 770.283C335.029 764.274 338.107 757.792 343.931 755.313C344.879 754.911 350.084 753.855 350.009 752.933L350.008 752.928Z" fill="#873C58" fill-opacity="0.4"/>
<path d="M2.6416 324.849C11.1837 303.199 45.2374 273.292 70.752 278.561C70.8066 279.309 70.3035 279.461 69.8732 279.854C61.3527 287.675 53.2689 295.197 44.4372 302.62C43.7493 302.572 43.3089 302.862 42.7634 303.191C36.7317 306.813 31.1289 312.27 24.9861 316.178C24.8549 316.262 24.7565 316.404 24.6538 316.52C24.5483 316.547 24.4237 316.514 24.311 316.531C21.2102 317.015 17.5829 319.185 14.588 320.413C10.6818 322.014 6.69224 323.691 2.6416 324.849Z" fill="#96B145" fill-opacity="0.4"/>
<path d="M4.09668 620.739C22.2264 606.144 66.6136 596.987 86.186 614.182C85.8633 614.86 85.3508 614.743 84.7829 614.871C73.5094 617.457 62.7636 619.998 51.4168 622.083C50.8426 621.701 50.3166 621.735 49.6795 621.752C42.6461 621.917 35.0775 623.891 27.8062 624.25C27.6508 624.258 27.4947 624.333 27.348 624.383C27.2431 624.354 27.1509 624.264 27.0446 624.223C24.1103 623.11 19.8842 623.203 16.6742 622.789C12.4871 622.25 8.19 621.735 4.09668 620.739Z" fill="#96B145" fill-opacity="0.4"/>
<path d="M116.417 167.4C100.642 150.288 58.0938 134.675 36.1964 148.791C36.4156 149.509 36.9396 149.47 37.4824 149.68C48.2504 153.902 58.503 158.003 69.4175 161.741C70.0418 161.448 70.557 161.559 71.1846 161.67C78.1165 162.872 85.3106 165.942 92.4491 167.371C92.6017 167.402 92.7449 167.499 92.8826 167.571C92.9907 167.557 93.0951 167.482 93.2063 167.457C96.2728 166.79 100.439 167.506 103.675 167.57C107.896 167.655 112.222 167.781 116.417 167.4Z" fill="#96B145" fill-opacity="0.4"/>
<path d="M387.266 354.447C386.782 357.378 383.965 359.924 381.826 361.989C379.28 364.448 376.216 366.502 373.968 369.128C365.631 375.455 357.698 382.349 349.223 388.504C341.169 394.353 332.921 399.073 323.521 402.618C321.824 397.386 330.998 386.549 334.436 382.631C339.958 376.349 348.353 367.889 355.772 363.956C363.034 360.107 379.076 355.079 387.265 354.444L387.266 354.447Z" fill="#7D9231" fill-opacity="0.4"/>
<path d="M285.813 648.79C283.053 649.89 279.418 648.793 276.544 648.029C273.123 647.12 269.782 645.558 266.372 644.99C256.647 641.121 246.646 637.891 236.997 633.815C227.828 629.943 219.525 625.32 211.633 619.103C215.235 614.947 229.254 617.202 234.385 618.121C242.617 619.602 254.197 622.419 261.398 626.738C268.445 630.968 281.039 642.104 285.815 648.787L285.813 648.79Z" fill="#7D9231" fill-opacity="0.4"/>
<path d="M159.206 740.129C157.475 742.543 153.821 743.579 150.989 744.484C147.617 745.562 143.961 746.047 140.782 747.406C130.506 749.389 120.341 752.059 110.017 753.826C100.206 755.506 90.7206 756.087 80.7222 755.104C81.5166 749.662 94.5403 744.006 99.3578 742.015C107.09 738.826 118.363 734.956 126.756 734.714C134.972 734.478 151.582 737.071 159.207 740.126L159.206 740.129Z" fill="#7D9231" fill-opacity="0.4"/>
<path d="M154.44 48.3422C157.134 49.5949 160.825 48.7037 163.737 48.1014C167.203 47.3854 170.627 46.0124 174.063 45.6362C183.989 42.3176 194.156 39.6531 204.017 36.1238C213.389 32.7703 221.938 28.6195 230.166 22.8538C226.802 18.5027 212.679 19.9699 207.504 20.6005C199.202 21.6185 187.482 23.7823 180.051 27.692C172.778 31.5202 159.581 41.9344 154.438 48.3396L154.44 48.3422Z" fill="#7D9231" fill-opacity="0.4"/>
<path d="M63.3019 451.211C80.5526 449.053 97.7855 447.682 114.803 451.943C126.986 454.996 143.906 463.229 152.671 472.552L121.615 468.931C111.21 465.204 100.168 461.498 89.3365 459.295C87.9167 459.008 86.0559 458.605 84.6545 458.488C84.2908 458.458 83.4954 458.164 83.5991 458.787L100.146 464.497C94.4786 464.401 85.9364 460.503 80.3596 458.324C74.6271 456.088 68.9929 453.552 63.3019 451.211Z" fill="#96B145" fill-opacity="0.4"/>
<path d="M288.302 202.211C305.553 200.053 322.786 198.682 339.803 202.943C351.986 205.996 368.906 214.229 377.671 223.552L346.615 219.931C336.21 216.204 325.168 212.498 314.336 210.295C312.917 210.008 311.056 209.605 309.654 209.488C309.291 209.458 308.495 209.164 308.599 209.787L325.146 215.497C319.479 215.401 310.936 211.503 305.36 209.324C299.627 207.088 293.993 204.552 288.302 202.211Z" fill="#96B145" fill-opacity="0.4"/>
<path d="M290.623 545.099C303.58 533.507 316.97 522.573 333.388 516.392C345.143 511.97 363.741 509.11 376.254 511.788L348.657 526.485C337.98 529.341 326.791 532.577 316.631 536.931C315.3 537.502 313.541 538.23 312.322 538.931C312.006 539.113 311.184 539.324 311.624 539.778L328.48 535.056C323.765 538.202 314.523 539.858 308.697 541.241C302.711 542.664 296.635 543.785 290.623 545.099Z" fill="#96B145" fill-opacity="0.4"/>
<path d="M323.522 402.622C332.923 399.078 341.174 394.357 349.225 388.508C350.107 388.938 351.421 387.899 352.199 387.459C360.779 382.584 367.675 376.491 373.969 369.132C376.217 366.503 379.279 364.454 381.828 361.993C383.964 359.929 386.784 357.382 387.268 354.451C388.224 354.377 389.509 354.141 389.954 355.218C390.279 356.014 387.653 362.818 387.091 364.071C377.617 385.113 355.786 405.159 331.136 405.319C328.8 405.332 324.385 405.284 323.522 402.622Z" fill="#96B145" fill-opacity="0.4"/>
<path d="M211.63 619.107C219.522 625.324 227.827 629.949 236.994 633.82C237.082 634.797 238.651 635.385 239.429 635.824C248.036 640.651 256.817 643.407 266.369 644.994C269.781 645.559 273.117 647.122 276.541 648.033C279.412 648.795 283.05 649.894 285.81 648.794C286.367 649.573 287.233 650.552 286.54 651.49C286.028 652.179 278.845 653.447 277.483 653.613C254.572 656.374 226.129 648.041 213.255 627.019C212.037 625.026 209.797 621.221 211.63 619.107Z" fill="#96B145" fill-opacity="0.4"/>
<path d="M80.7217 755.109C90.7201 756.093 100.209 755.512 110.016 753.831C110.617 754.607 112.256 754.257 113.148 754.207C123 753.634 131.88 751.223 140.782 747.411C143.961 746.049 147.614 745.567 150.989 744.489C153.817 743.583 157.474 742.548 159.206 740.134C160.095 740.49 161.353 740.848 161.274 742.011C161.214 742.868 155.847 747.807 154.789 748.681C136.979 763.356 108.53 771.666 86.3551 760.898C84.2547 759.876 80.3173 757.878 80.7217 755.109Z" fill="#96B145" fill-opacity="0.4"/>
<path d="M230.169 22.8576C221.941 28.6233 213.39 32.7763 204.02 36.1276C203.878 37.0983 202.279 37.5977 201.477 37.9923C192.613 42.3303 183.693 44.5899 174.067 45.64C170.628 46.0136 167.209 47.3872 163.74 48.1053C160.831 48.7054 157.137 49.5988 154.443 48.3461C153.843 49.093 152.923 50.022 153.563 50.9966C154.036 51.7137 161.137 53.3817 162.488 53.6236C185.208 57.6629 214.072 50.9348 228.103 30.6666C229.431 28.7448 231.88 25.0711 230.169 22.8576Z" fill="#96B145" fill-opacity="0.4"/>
<path d="M324.749 764.649L326.133 772.271C336.704 790.185 362.217 774.494 369.615 760.601C368.846 772.64 360.59 783.612 349.746 788.827C331.587 797.56 317.583 783.256 324.746 764.647L324.749 764.649Z" fill="#602A3E" fill-opacity="0.4"/>
<path d="M366.715 748.026L366.034 748.364L367.133 749.292L367.141 749.648C365.195 747.756 360.962 746.705 358.246 746.371C349.535 745.3 341.39 749.401 334.787 755.06C332.418 757.09 330.018 760.316 327.666 761.898C327.027 762.329 326.246 762.694 325.47 762.61C330.8 751.199 347.076 737.908 359.921 743.255C360.801 743.623 366.596 747.619 366.712 748.024L366.715 748.026Z" fill="#9C4868" fill-opacity="0.4"/>
</svg>
