<svg width="373" height="470" viewBox="0 0 373 470" fill="none" xmlns="http://www.w3.org/2000/svg">
<path d="M392.847 73.722C394.065 78.4895 391.04 80.6605 389.502 84.5769C388.402 87.3905 392.813 84.8113 393.494 84.4032C397.51 81.9717 402.224 79.3579 406.006 76.9003C406.535 76.5617 408.266 74.6599 407.964 73.722C411.644 73.9999 416.963 74.686 420.559 75.4588C430.601 77.6037 438.861 82.649 447.423 87.5989C447.625 90.2301 450.146 90.5687 451.633 92.3489C458.313 100.321 466.473 109.569 470.809 119.382C471.691 121.37 474.136 126.893 474.06 128.7C473.976 130.888 471.279 131.669 470.363 132.972C469.758 133.84 470.338 136.176 468.128 137.601C463.179 140.796 450.768 146.997 447.23 151.825C446.39 152.971 445.751 153.622 445.743 155.246C406.258 94.5633 314.23 105.948 289.206 174.368C264.149 242.866 328.523 311.556 395.544 292.017C451.583 275.683 479.169 209.051 447.423 156.974C448.289 156.384 449.608 154.178 450.205 153.787C456.255 149.793 463.33 146.658 469.825 142.82C470.422 142.464 471.346 140.397 472.052 139.954C473.187 139.251 476.161 138.686 477.632 137.896C484.673 162.211 488.135 188.271 484.119 213.532C474.976 270.993 449.793 314.543 404.527 349.001C378.083 369.139 337.758 375.434 306.365 365.561C280.66 357.476 277.282 345.119 265.636 322.593C265.14 321.629 264.964 319.293 263.552 321.751C255.947 306.163 246.813 287.614 243.402 270.585C242.772 267.433 242.217 262.709 241.721 259.314C242.637 259.461 246.393 255.892 246.511 255.606C246.982 254.52 246.561 252.644 246.788 252.41C247.015 252.176 248.839 252.61 249.881 252.123C250.754 251.724 257.157 243.648 258.771 242.25C259.359 241.737 260.989 242.206 261.603 241.694C262.947 240.574 268.241 235.094 266.896 233.305L260.51 237.135C256.821 240.418 250.141 245.741 245.234 246.922C243.486 247.347 241.789 247.226 240.032 247.174C232.579 169.514 259.266 114.58 329.052 83.7172C351.303 73.8783 369.092 73.3052 392.83 73.7134L392.847 73.722Z" fill="#B9C353" fill-opacity="0.4"/>
<path d="M474.049 128.699C474.124 126.893 471.679 121.37 470.797 119.381C466.461 109.577 458.302 100.32 451.621 92.3482C450.134 90.568 447.613 90.2294 447.412 87.5981C547.759 145.65 512.92 271.027 464.553 353.776C440.084 395.641 411.296 427.988 378.542 462.671C376.912 464.4 374.323 469.836 371.601 469.106C328.889 425.982 290.623 377.266 263.54 321.767C264.952 319.31 265.128 321.646 265.624 322.609C277.27 345.135 280.648 357.493 306.353 365.577C337.746 375.451 378.08 369.155 404.515 349.017C449.773 314.551 474.956 271.01 484.107 213.549C488.123 188.288 484.661 162.227 477.62 137.912" fill="#A9AF4C" fill-opacity="0.4"/>
<path d="M4.96063 123.159C5.68328 124.548 6.76725 125.599 7.92684 126.597C26.1779 142.376 42.0089 152.927 62.0497 165.649C62.2514 165.779 62.6883 165.519 62.89 165.649C63.1589 165.814 63.3857 166.3 63.7303 166.517C84.4601 179.5 101.064 190.259 124.18 199.473C124.584 199.629 125.088 200.046 125.861 200.341C126.105 200.436 126.449 200.254 126.701 200.341C126.323 202.512 129.743 203.302 131.18 203.953C152.507 213.723 181.925 229.293 203.94 234.599C206.554 235.224 209.906 236.587 212.343 235.033C212.738 240.434 214.133 253.182 212.805 257.628C212.142 259.851 205.638 266.069 203.781 269.117C198.672 277.497 194.84 289.081 191.353 298.347C190.496 297.713 172.699 298.59 170.363 299.215C171.749 284.792 180.202 272.382 185.471 259.322C171.253 262.031 156.96 268.292 144.154 275.178C136.264 279.425 123.138 287.093 117.467 294.014C110.769 291.669 107.913 284.696 104.03 279.269C121.718 266.764 139.936 255.214 159.473 245.905L183.782 236.778C178.194 233.018 172.497 236.483 166.607 236.804C95.9973 240.625 42.5214 212.498 8.17051 148.889C5.24631 143.47 -1.91292 131.851 0.481892 125.964C1.19614 124.201 3.56576 123.871 4.96063 123.159Z" fill="#96B145" fill-opacity="0.4"/>
<path d="M116.62 296.618C119.233 299.458 120.292 306.735 120.821 310.495C113.225 319.135 110.914 331.987 104.73 342.009C95.6548 356.719 68.8077 381.92 51.5482 383.335C30.8855 385.028 12.5168 357.831 15.0293 338.249C15.6763 333.221 16.7015 332.118 18.3904 327.845C23.4069 324.545 26.3648 318.354 30.4401 314.272C32.5577 312.154 36.6667 309.01 39.1707 307.056C55.674 294.195 79.4036 279.971 100.554 287.63C103.217 288.594 115.015 294.881 116.62 296.627V296.618ZM62.892 314.837C51.2457 319.109 44.0444 331.701 40.6496 343.45C38.7338 350.076 36.7339 357.405 38.5573 364.257C39.7421 364.239 40.2127 361.79 40.616 360.757C46.893 344.718 50.8087 327.75 62.9004 314.837H62.892Z" fill="#B9C353" fill-opacity="0.4"/>
<path d="M194.704 300.952C203.586 302.003 211.905 312.25 216.535 319.162C223.047 358.474 195.914 429.274 147.093 409.544L132.582 396.353C132.094 394.686 131.271 392.81 130.901 391.152C132.59 390.127 133.598 388.182 134.22 386.341C136.514 379.541 136.371 369.364 138.01 361.635C142.573 340.099 152.622 319.319 171.789 308.064C177.764 304.556 187.889 300.145 194.712 300.961L194.704 300.952ZM165.311 333.916C160.235 334.585 157.773 339.066 155.404 343.191C149.354 353.716 146.186 366.993 149.807 378.994C151.135 383.388 155.765 393.983 161.118 392.463C152.664 379.776 148.875 362.009 156.765 348.062C158.051 345.796 166.89 335.662 165.319 333.925L165.311 333.916Z" fill="#B9C353" fill-opacity="0.4"/>
<path d="M212.333 235.042C209.896 236.597 206.543 235.242 203.93 234.608C181.914 229.302 152.496 213.732 131.169 203.963C129.741 203.303 126.321 202.521 126.691 200.35C128.623 201.054 130.573 202 132.514 202.582C133.312 202.825 135.295 203.676 135.077 202.096C122.01 196.729 108.952 190.954 96.4487 184.328C85.2813 178.406 73.7946 169.514 62.9633 164.277C60.6609 163.166 61.0391 164.277 62.0474 165.658C42.0066 152.936 26.1672 142.377 7.92458 126.607C6.76499 125.608 5.68102 124.557 4.95837 123.168C14.9074 118.071 32.6122 121.397 43.7544 123.42C82.1134 130.376 116.607 150.635 147.597 173.995C165.722 187.663 191.838 207.297 207.694 222.928C213.097 228.251 211.803 227.817 212.333 235.042Z" fill="#7D9231" fill-opacity="0.4"/>
<path d="M213.177 192.543C206.48 189.122 202.506 180.368 199.17 173.621C195.195 165.588 192.599 156.618 187.994 149.176C179.146 124.201 168.617 99.7647 160.29 74.5902C152.374 50.6662 147.332 27.1416 146.013 1.74133C159.937 1.67186 179.02 32.1348 185.826 43.4412C196.733 61.5905 210.682 88.3455 214.463 109.265C218.16 129.741 217.95 172.301 213.186 192.543H213.177Z" fill="#7D9231" fill-opacity="0.4"/>
<path d="M146 1.74121C147.319 27.1415 152.361 50.6748 160.277 74.5902C158.562 76.3877 160.058 80.3563 160.52 82.5707C165.68 107.016 175.074 128.335 187.981 149.176C192.594 156.618 195.182 165.58 199.157 173.621C202.493 180.36 206.467 189.122 213.164 192.543C212.61 194.905 212.189 198.188 209.248 198.431C207.08 198.604 192.686 187.038 190.098 184.719C146.63 145.685 115.069 77.6122 133.639 18.0322C135.404 12.3876 138.916 1.77595 146 1.74121Z" fill="#96B145" fill-opacity="0.4"/>
<path d="M15.0325 338.24C12.5201 357.822 30.8803 385.029 51.5514 383.327C68.8108 381.911 95.6664 356.711 104.733 342C110.918 331.97 113.228 319.127 120.825 310.486C126.782 352.968 82.3563 423.863 34.8129 408.44C10.4362 400.529 7.13384 359.125 15.0409 338.24H15.0325Z" fill="#A9AF4C" fill-opacity="0.4"/>
<path d="M132.577 396.352L147.088 409.543C195.909 429.281 223.042 358.473 216.53 319.161C233.512 344.544 233.806 379.306 220.034 406.477C196.976 451.981 146.811 444.782 132.568 396.352H132.577Z" fill="#A9AF4C" fill-opacity="0.4"/>
<path d="M420.552 75.4596C416.956 74.6955 411.637 74.0007 407.956 73.7229C403.116 73.3581 397.781 73.8097 392.848 73.7229C369.11 73.3147 351.313 73.8878 329.07 83.7267C259.276 114.589 232.588 169.523 240.05 247.183C240.437 251.178 241.143 255.337 241.731 259.323C242.227 262.718 242.781 267.451 243.411 270.595C235.37 247.773 231.605 221.678 232.454 197.268C234.773 130.342 277.056 85.9845 338.087 70.4925C366.648 63.2414 383.529 64.5353 411.696 72.0382C414.208 72.7068 418.863 73.6273 420.552 75.4596Z" fill="#D0D47E" fill-opacity="0.4"/>
<path d="M191.346 298.347L190.497 300.076L194.136 300.249L194.699 300.953C187.875 300.145 177.75 304.548 171.776 308.056C152.617 319.31 142.559 340.091 137.996 361.627C136.357 369.355 136.5 379.533 134.206 386.332C133.585 388.182 132.576 390.119 130.887 391.143C124.039 360.003 136.299 308.238 170.347 299.216C172.683 298.599 190.48 297.714 191.337 298.347H191.346Z" fill="#D0D47E" fill-opacity="0.4"/>
<path d="M104.029 279.268C107.911 284.695 110.768 291.668 117.465 294.013C116.936 294.656 116.785 295.776 116.625 296.618C115.029 294.881 103.222 288.586 100.559 287.622C79.4004 279.962 55.6791 294.187 39.1758 307.047C36.6718 309.001 32.5627 312.145 30.4452 314.264C26.3698 318.345 23.412 324.537 18.3955 327.837C29.2772 300.274 63.3929 269.247 94.0129 277.045C98.3992 278.165 100.155 282.012 104.038 279.268H104.029Z" fill="#D0D47E" fill-opacity="0.4"/>
<path d="M240.039 247.181C241.804 247.233 243.493 247.355 245.241 246.929C250.139 245.74 256.828 240.425 260.517 237.143L266.903 233.313C268.248 235.102 262.954 240.581 261.609 241.702C260.996 242.214 259.366 241.754 258.778 242.257C257.164 243.664 250.761 251.731 249.887 252.131C248.837 252.617 247.014 252.183 246.795 252.418C246.577 252.652 246.988 254.528 246.518 255.613C246.392 255.891 242.644 259.469 241.728 259.321C241.148 255.335 240.434 251.176 240.048 247.181H240.039Z" fill="#B9C353" fill-opacity="0.4"/>
<path d="M125.862 200.35C125.089 200.055 124.585 199.638 124.182 199.481L125.862 200.35Z" fill="#7D9231" fill-opacity="0.4"/>
<path d="M63.7301 166.525C63.3855 166.308 63.1587 165.83 62.8898 165.657L63.7301 166.525Z" fill="#7D9231" fill-opacity="0.4"/>
<path d="M372.273 140.126C393.213 140.126 416.825 153.3 427.405 172.014C461.789 232.809 383.911 297.73 330.704 250.229C286.085 210.396 315.512 140.126 372.273 140.126ZM360.098 167.402C350.165 171.579 340.351 185.387 337.822 195.99C335.586 205.368 337.267 219.671 345.409 225.498C345.569 221.017 340.889 216.979 340.141 212.724C336.628 192.768 349.418 181.488 360.098 167.402Z" fill="#D0D47E" fill-opacity="0.4"/>
</svg>
