<svg width="393" height="470" viewBox="0 0 393 470" fill="none" xmlns="http://www.w3.org/2000/svg">
<path d="M20.8468 73.722C22.0652 78.4895 19.0402 80.6605 17.5024 84.5769C16.4017 87.3905 20.8132 84.8113 21.4938 84.4032C25.5104 81.9717 30.2244 79.3579 34.0057 76.9003C34.535 76.5617 36.2661 74.6599 35.9635 73.722C39.644 73.9999 44.963 74.686 48.5594 75.4588C58.6009 77.6037 66.8608 82.649 75.4234 87.5989C75.625 90.2301 78.1459 90.5687 79.6332 92.3489C86.3135 100.321 94.4727 109.569 98.8086 119.382C99.6909 121.37 102.136 126.893 102.06 128.7C101.976 130.888 99.2791 131.669 98.3632 132.972C97.7582 133.84 98.338 136.176 96.128 137.601C91.1788 140.796 78.7677 146.997 75.2301 151.825C74.3898 152.971 73.7512 153.622 73.7428 155.246C34.2577 94.5633 -57.7704 105.948 -82.7941 174.368C-107.851 242.866 -43.4771 311.556 23.5441 292.017C79.5828 275.683 107.169 209.051 75.4234 156.974C76.2889 156.384 77.6081 154.178 78.2047 153.787C84.2548 149.793 91.33 146.658 97.8254 142.82C98.422 142.464 99.3463 140.397 100.052 139.954C101.187 139.251 104.161 138.686 105.632 137.896C112.673 162.211 116.135 188.271 112.119 213.532C102.976 270.993 77.793 314.543 32.5268 349.001C6.08295 369.139 -34.2424 375.434 -65.6355 365.561C-91.3398 357.476 -94.7178 345.119 -106.364 322.593C-106.86 321.629 -107.036 319.293 -108.448 321.751C-116.053 306.163 -125.187 287.614 -128.598 270.585C-129.228 267.433 -129.783 262.709 -130.279 259.314C-129.363 259.461 -125.607 255.892 -125.489 255.606C-125.018 254.52 -125.439 252.644 -125.212 252.41C-124.985 252.176 -123.161 252.61 -122.119 252.123C-121.246 251.724 -114.843 243.648 -113.229 242.25C-112.641 241.737 -111.011 242.206 -110.397 241.694C-109.053 240.574 -103.759 235.094 -105.104 233.305L-111.49 237.135C-115.179 240.418 -121.859 245.741 -126.766 246.922C-128.514 247.347 -130.211 247.226 -131.968 247.174C-139.421 169.514 -112.734 114.58 -42.9478 83.7172C-20.697 73.8783 -2.9081 73.3052 20.83 73.7134L20.8468 73.722Z" fill="#B9C353" fill-opacity="0.4"/>
<path d="M105.629 137.904C104.158 138.694 101.175 139.259 100.049 139.962C99.3351 140.405 98.4192 142.472 97.8226 142.828C91.3188 146.666 84.252 149.801 78.2019 153.796C77.6053 154.186 76.2861 156.401 75.4206 156.983C75.2609 156.722 74.3114 156.123 73.74 155.246C73.7568 153.622 74.3954 152.962 75.2273 151.824C78.7649 146.996 91.1675 140.796 96.1252 137.6C98.3352 136.176 97.7554 133.84 98.3604 132.972C99.2763 131.669 101.974 130.888 102.058 128.699" fill="#B9C353" fill-opacity="0.4"/>
<path d="M102.049 128.699C102.124 126.893 99.679 121.37 98.7967 119.381C94.4608 109.577 86.3016 100.32 79.6214 92.3482C78.134 90.568 75.6132 90.2294 75.4116 87.5981C175.759 145.65 140.92 271.027 92.5534 353.776C68.0842 395.641 39.2961 427.988 6.5417 462.671C4.91154 464.4 2.32346 469.836 -0.399071 469.106C-43.1108 425.982 -81.3774 377.266 -108.46 321.767C-107.048 319.31 -106.872 321.646 -106.376 322.609C-94.7296 345.135 -91.3517 357.493 -65.6473 365.577C-34.2542 375.451 6.07952 369.155 32.5149 349.017C77.7727 314.551 102.956 271.01 112.107 213.549C116.123 188.288 112.661 162.227 105.62 137.912" fill="#A9AF4C" fill-opacity="0.4"/>
<path d="M403.689 123.159C404.445 125.686 403.075 129.654 402.437 132.711C393.782 174.515 355.044 199.872 318.862 214.626C281.351 229.927 237.715 227.226 198.516 236.874C192.289 238.402 165.955 248.076 162.451 247.216C159.947 246.608 161.031 223.275 162.93 221.356C163.442 220.835 174.501 216.397 176.349 215.703C185.752 212.142 201.062 206.715 210.591 204.674C210.675 204.657 211.154 205.412 212.221 205.178C221.699 203.085 231.279 201.253 240.816 199.472C238.261 200.723 235.589 203.441 232.43 203.823C232.228 205.386 234.253 204.613 235.144 204.466C269.201 198.847 295.35 181.323 324.777 165.658C351.12 151.633 378.598 139.554 403.697 123.159H403.689Z" fill="#96B145" fill-opacity="0.4"/>
<path d="M198.836 246.313C212.936 252.93 226.868 260.042 241.086 266.416C254.917 272.608 276.025 283.532 290.352 284.479C290.629 284.496 290.915 284.453 291.192 284.479C291.503 285.321 292.226 285.165 292.873 285.347C309.536 290.002 327.24 297.765 344.088 298.355L422.168 311.364C429.655 320.152 430.705 321.064 420.748 327.672C357.659 369.537 264.933 320.491 214.785 276.246C209.684 271.748 194.744 258.045 191.753 253.208C187.728 246.712 194.013 246.678 198.845 246.313H198.836Z" fill="#7D9231" fill-opacity="0.4"/>
<path d="M171.122 262.795C173.727 273.146 177.651 283.367 181.391 293.379C184.256 301.056 189.457 310.417 190.432 318.293C188.961 317.269 188.146 316.782 189.096 319.231C196.877 339.291 211.229 354.097 224.01 370.327C242.084 393.27 260.47 414.328 279.578 436.515C280.544 437.636 280.88 438.921 282.779 438.843C281.847 442.724 281.25 447.231 275.679 447.396C223.817 448.942 179.912 396.196 163.534 349.972C156.325 329.617 147.603 287.101 156.678 267.397C160.467 259.173 164.114 259.773 171.105 262.795H171.122Z" fill="#7D9231" fill-opacity="0.4"/>
<path d="M171.123 262.795C225.221 286.146 298.166 374.713 282.789 438.852C280.89 438.93 280.546 437.645 279.588 436.524C260.479 414.337 242.094 393.279 224.02 370.336C224.196 368.599 223.499 367.462 222.709 366.055C214.029 350.502 200.668 335.887 191.274 320.03C191.072 319.692 190.719 319.431 190.433 319.162C190.374 318.893 190.467 318.58 190.433 318.294C189.459 310.409 184.257 301.056 181.392 293.38C177.653 283.367 173.728 273.137 171.123 262.795Z" fill="#96B145" fill-opacity="0.4"/>
<path d="M195.475 116.22C195.592 116.09 196.525 116.724 197.164 115.63C201.474 108.231 209.558 78.2021 212.86 67.8335C219.978 45.4552 226.742 22.8077 232.414 0.00390625C234.985 0.108113 236.035 2.99984 237.287 4.94502C275.394 64.2645 232.061 151.051 183.274 189.052C179.988 191.613 161.452 206.193 160.183 196.389C159.628 192.056 170.997 176.364 173.779 171.441C183.602 154.082 191.332 135.993 195.466 116.22H195.475Z" fill="#96B145" fill-opacity="0.4"/>
<path d="M198.836 246.312C242.724 242.995 286.47 241.667 328.971 254.553C359.398 263.784 401.16 286.701 422.167 311.363L344.088 298.355C318.241 287.639 290.78 276.897 263.664 269.985C260.11 269.082 255.455 267.831 251.926 267.362C251.01 267.241 249.035 266.398 249.22 267.987L290.352 284.478C276.033 283.532 254.917 272.616 241.086 266.416C226.868 260.05 212.936 252.938 198.836 246.312Z" fill="#96B145" fill-opacity="0.4"/>
<path d="M403.689 123.159C378.59 139.554 351.113 151.633 324.77 165.657C324.022 163.981 322.081 165.284 320.972 165.631C294.074 174.003 266.219 186.994 240.808 199.481C231.28 201.261 221.692 203.094 212.214 205.186C211.146 205.421 210.667 204.665 210.583 204.683C224.129 193.576 235.489 179.586 248.808 168.28C287.57 135.368 329.475 112.582 381.472 116.185C385.17 116.437 399.202 118.669 402.001 120.145C403.37 120.866 403.32 121.926 403.689 123.159Z" fill="#7D9231" fill-opacity="0.4"/>
<path d="M232.414 0.00395702C226.733 22.7991 219.969 45.4553 212.86 67.8336C209.558 78.2108 201.474 108.231 197.164 115.63C196.525 116.724 195.592 116.09 195.475 116.22C191.256 120.675 180.61 153.622 174.627 163.634C172.686 166.89 167.77 177.433 163.073 173.542C160.939 171.779 156.62 156.244 156.242 152.84C152.603 119.485 178.282 50.3009 199.315 24.3622C204.482 17.9882 224.607 -0.308662 232.405 0.00395702H232.414Z" fill="#7D9231" fill-opacity="0.4"/>
<path d="M48.5523 75.4596C44.9559 74.6955 39.6369 74.0007 35.9564 73.7229C31.1163 73.3581 25.7805 73.8097 20.8481 73.7229C-2.89006 73.3147 -20.6874 73.8878 -42.9298 83.7267C-112.724 114.589 -139.412 169.523 -131.95 247.183C-131.563 251.178 -130.857 255.337 -130.269 259.323C-129.773 262.718 -129.219 267.451 -128.589 270.595C-136.63 247.773 -140.395 221.678 -139.546 197.268C-137.227 130.342 -94.9436 85.9845 -33.9135 70.4925C-5.35214 63.2414 11.5293 64.5353 39.6957 72.0382C42.2081 72.7068 46.8633 73.6273 48.5523 75.4596Z" fill="#D0D47E" fill-opacity="0.4"/>
<path d="M35.9516 73.7201C36.2541 74.658 34.5147 76.5511 33.9938 76.8984C30.2125 79.356 25.4985 81.9785 21.4819 84.4013C20.8013 84.8094 16.3898 87.3885 17.4905 84.575C19.0282 80.6585 22.0533 78.4876 20.8349 73.7201C25.7674 73.807 31.1032 73.3554 35.9432 73.7201H35.9516Z" fill="#B9C353" fill-opacity="0.4"/>
<path d="M292.865 285.339C292.218 285.156 291.496 285.313 291.185 284.47C291.907 284.54 292.596 284.496 292.865 285.339Z" fill="#96B145" fill-opacity="0.4"/>
<path d="M191.274 320.03C190.879 319.908 190.526 319.578 190.434 319.161C190.719 319.43 191.072 319.691 191.274 320.03Z" fill="#7D9231" fill-opacity="0.4"/>
<path d="M0.273373 140.126C21.2133 140.126 44.8254 153.3 55.4046 172.014C89.789 232.809 11.9114 297.73 -41.2955 250.229C-85.9147 210.396 -56.4879 140.126 0.273373 140.126ZM-11.9024 167.402C-21.8345 171.579 -31.6491 185.387 -34.1783 195.99C-36.4135 205.368 -34.7329 219.671 -26.5905 225.498C-26.4309 221.017 -31.1113 216.979 -31.8592 212.724C-35.3715 192.768 -22.5824 181.488 -11.9024 167.402Z" fill="#D0D47E" fill-opacity="0.4"/>
</svg>
